# xmcd
#
# Track frame offsets:
#	150
#	17260
#	31377
#	49868
#	80011
#	99477
#	116976
#	137935
#	151730
#	179256
#	195777
#	210822
#	224823
#	245389
#	264462
#	282279
#	299200
#	317087
#	329307
#
# Disc length: 4669 seconds
#
# Revision: 1
# Processed by: cddbd v1.5.2PL0 Copyright (c) Steve Scherf et al.
# Submitted via: EZCDAudioConverter 2.1.7.1
#
DISCID=17123b13
DTITLE=V/A - Good God! Apocryphal Hymns
DYEAR=2013
DGENRE=
TTITLE0=Robert Vanderbilt and The Foundation Of Souls - A Message Especially Fro
TTITLE0=m God
TTITLE1=Spiritual Harmonizers - God's Love
TTITLE2=Sensational Saints - That's All I Need
TTITLE3=Otis G. Johnson - Walk With Jesus
TTITLE4=Shelton Kilby - Poor Wayfaring Stranger
TTITLE5=Jonah Thompson - Get Involved
TTITLE6=Dwain Vinyard - Searching For The Truth
TTITLE7=Supreme Jubilees - It'll All Be Over
TTITLE8=Religious Souls - Sinner Man
TTITLE9=Gospel Clouds - Let Us Pray
TTITLE10=Flying Eagles Gospel Singers - Can't Run This Race Alone
TTITLE11=Soul Superiors - Faith
TTITLE12=God's Band - Come Holy Spirit
TTITLE13=Whole Truth - Can You Lose By Following God
TTITLE14=Fantastic Goldenaires Of Rocky Mount, NC - Thank You Lord
TTITLE15=Wayne and Thelma And The McAllister Singers - Peace When He Comes
TTITLE16=Francis Reneau and The Mission Singers - I Hear You Calling
TTITLE17=Bernard Upshaw Singers - Have You Tried Jesus
TTITLE18=Chester Lewis - Precious Lord
EXTD=
EXTT0=
EXTT1=
EXTT2=
EXTT3=
EXTT4=
EXTT5=
EXTT6=
EXTT7=
EXTT8=
EXTT9=
EXTT10=
EXTT11=
EXTT12=
EXTT13=
EXTT14=
EXTT15=
EXTT16=
EXTT17=
EXTT18=
PLAYORDER=
